<?xml version="1.0" encoding="UTF-8"?>
<svg id="Layer_1" data-name="Layer 1" xmlns="http://www.w3.org/2000/svg" viewBox="0 0 130 85">
  <defs>
    <style>
      .cls-1 {
        fill: none;
        stroke: #5ac4d2;
        stroke-width: 3px;
      }

      .cls-2 {
        fill: #5ac4d2;
      }
    </style>
  </defs>
  <path class="cls-2" d="m45.62,36.43c3.65.31,13.95,4.23,17.21,5.66,1.46-1.09,3.91-2.15,4.15-2.21.35-.09,1.06-1.33.27-3.54-.8-2.21-1.06-5.49-4.87-5.4-3.8.09-17.17-1.24-18.05-1.42-.89-.18-.62-2.3-3.72-2.21-3.1.09-8.05.09-9.82-.18-1.77-.27-4.25.62-4.25.62,0,0-.12.48-.4.94,1.29,1.6,15.27,7.38,19.48,7.74Z"/>
  <path class="cls-2" d="m109.87,51.39c.49-.06.94-.1,1.35-.1,0,0-5.04-4.07-12.12-1.42,0,0,4.78-5.04,6.73-4.78,1.95.27,3.01-.09,3.01-.09,0,0-1.42-7.88-9.38-13.63-7.96-5.75-11.06-7.7-11.06-7.7l-.69.3-.08-1.01s3.78-.12,4.78-.18c1-.06.41-2.06-.71-3.42-1.12-1.36-2.83-3.89-4.13-3.83-1.3.06-.59,1.53-1.54,1.89-.94.35-1.42.89-1.42.89,0,0-1.3-2.54-1.36-2.71-.06-.18-.59-.12-1.06,0-.47.12-.94.18-.94.18l-1.12-6.49-3.42-2.54s-3.3-1.18-3.89-.59c-.59.59.3,3.24.3,3.24.29,1.12,1.47,2.71,3.54,1.59,0,0,2.36,4.42,2.12,5.07-.24.65-1.42.77-1.47,1.53,0,0-1.06.29-1.42.29s-1.48.12-1.48,1.06,1,1.42,1.89.77l.83-.29,1.89,2.42-.59.82.41,1.18,2.11,3.59.02.13s7.17,12.92,3.01,19.47c-4.16,6.55-4.25,8.05-8.85,5.93-4.6-2.12-13.18-8.14-13.36-9.47-.02-.15.03-.31.12-.47-3.42-1.44-12.93-5.08-16.37-5.37-2.35-.2-7.29-1.92-11.13-3.46-1.85-.74-7.96-3.27-9.18-4.69-.16.04-2.03-.53-2.56,1.17-.27.88-.18,2.3,2.21,3.27,2.39.97,15.66,12.83,24.69,16.99l-2.12,2.94c-1.03-.33-1.68-.55-1.68-.55,0,0-10-3.72-11.5-4.16-1.5-.44-7.26-1.68-7.88-1.5,0,0,.62,1.24,1.24,1.68.36.26,1.08.45,1.61.57-1.07.21-2.1.54-3.07.98-.98-.54-2.81-1.35-3.94-.67-1.56.96-2.36,2.25-.97,4.39-2.02,2.4-3.24,5.5-3.24,8.88,0,7.63,6.21,13.83,13.83,13.83,5.87,0,10.9-3.68,12.91-8.85.3.11.58.19.83.24,3.8.8,6.19-1.06,7.17-1.15.97-.09,4.87-1.5,10.8-1.24,5.93.27,20.79.97,23.36,1.68,0,0,.35-6.55,1.5-9.47l2.58-1.5c-1.02,1.93-1.6,4.13-1.6,6.46,0,7.63,6.21,13.83,13.83,13.83s13.83-6.21,13.83-13.83c0-5.21-2.89-9.75-7.16-12.11Zm-78.04,20.81c-4.8,0-8.7-3.9-8.7-8.7,0-1.72.5-3.32,1.37-4.68l2.7,2.61c-.28.63-.44,1.33-.44,2.06,0,2.8,2.27,5.07,5.07,5.07,2.59,0,4.73-1.94,5.03-4.45,1.07.7,2.18,1.39,3.25,2.03-1.12,3.51-4.41,6.06-8.29,6.06Zm71.36,0c-4.8,0-8.7-3.9-8.7-8.7,0-2.4.98-4.58,2.55-6.15l1.93,3.33c-.54.81-.86,1.78-.86,2.82,0,2.8,2.27,5.07,5.07,5.07s5.08-2.27,5.08-5.07c0-2.57-1.9-4.68-4.38-5.02l-.49-3.67c4.7.11,8.49,3.97,8.49,8.7,0,4.8-3.9,8.7-8.7,8.7Z"/>
  <rect class="cls-1" x="1.5" y="1.5" width="127" height="82" rx="7.5" ry="7.5"/>
</svg>