<?xml version="1.0" encoding="UTF-8"?>
<svg id="Layer_1" data-name="Layer 1" xmlns="http://www.w3.org/2000/svg" viewBox="0 0 91.47 92">
  <defs>
    <style>
      .cls-1 {
        fill: none;
      }

      .cls-1, .cls-2 {
        stroke: #5ac4d2;
        stroke-width: 4px;
      }

      .cls-2 {
        fill: #5ac4d2;
      }
    </style>
  </defs>
  <path class="cls-1" d="m89.47,46c0,24.31-19.59,44-43.74,44S2,70.31,2,46,21.59,2,45.74,2s43.74,19.69,43.74,44Z"/>
  <path class="cls-2" d="m59.84,50.12l.73.78s0,0,0,0c-.26.24-.5.47-.76.72-.13.12-.26.25-.4.38,0,0-.01.01-.02.02h0s0,.01,0,.01m.47-1.91l-2.85-.98m2.85.98l-.39-.42,4.57-4.4c-.18.22-.37.44-.56.65,0,0,0,0,0,0-.19.21-.37.41-.57.61,0,0,0,0-.01.01-1.04,1.07-2.16,2.06-3.3,3.02.1.14.19.31.26.53,0,0,0,0,0,0Zm-.47,1.91s.01-.01.02-.02l-1.2-1.27s0,0,0,0c0,0-.01.01-.02.02-.06.05-.11.08-.18.01-.1-.09-.04-.15.02-.2,0,0,.01-.01.02-.02,0,0,0,0,0,0l-1.12-1.35s.02-.02.03-.03c0,0,0,0,0,0,0,0,.03-.02.06-.04h0m2.38,2.89h0s0,0,0,0Zm-2.38-2.89c.06-.04.23-.15.46-.23.31-.1.7-.14,1.11-.03.07.02.14.04.2.06,0,0,0,0,0,0,.26.1.44.24.54.33.01,0,.02.02.04.03-.04.04-.09.08-.13.12-.08.07-.15.14-.23.21-.19.18-.38.36-.57.55-.12.12-.25.24-.37.35l-1.04-1.4Zm2.42,2.84l-1.23-1.25c.11-.09.22-.18.32-.27.31-.26.62-.52.93-.78l.39.42c.16.51.08.99-.08,1.35-.13.29-.3.47-.34.52Zm-.04.37s0,0,0,0l-1.9-5.97c1.58-1.16,3.08-2.52,4.3-4.24.26-.36.49-.73.71-1.06l.03-.05c.21-.32.39-.61.59-.89.45-.64.84-1.11,1.24-1.43,0,.4-.09.88-.31,1.5-.5,1.45-1.37,2.75-2.5,4.06-.07.08-.15.17-.25.27h0c-.09.1-.18.2-.28.31-1,1.06-2.06,2.07-3.17,3.1h0c-.28.26-.57.54-.84.8-.13.12-.25.24-.37.35h-.01s-.01.02-.01.02c.09-.09-.06.06-.09.09-.07.07-.27.28-.42.62-.17.39-.26.91-.09,1.47.15.49.45.81.64.97.17.15.46.36.86.47.44.12.86.08,1.21-.04.3-.1.5-.25.57-.29.04-.03.07-.06.08-.06Zm7.63-17.83s0,0,0,0c0,0,0,0-.01,0h0Z"/>
  <path class="cls-2" d="m48.54,65.7c.01-.18.02-.37.04-.55,1.77.12,3.55.24,5.32.36h0c.21.01.43.03.64.04,1.3.09,2.6.18,3.9.26-.07.94-.13,1.88-.19,2.82-2.27-.15-4.53-.3-6.8-.46-1.02-.07-2.05-.14-3.07-.21.05-.76.1-1.52.16-2.28Zm11.57.23s.01,0,0,0h0Zm-.1,2.83s0,0,.01,0h0s0,0,0,0Z"/>
  <path class="cls-2" d="m59.97,61.29s-.02,0-.03,0c0,0,0,0,0,0-.54-.04-1.09-.08-1.63-.11-.02-.08-.03-.15-.04-.2-.02-.15-.02-.27-.01-.31,0,0,0,0,0,0h0s0,0,0,0c-.01.17-.03.34-.04.51-1.18-.08-2.36-.16-3.53-.24h0c-1.68-.12-3.36-.23-5.04-.34.01-.18.02-.36.03-.54,0-.09.01-.17.01-.2h0c1.68.11,3.36.22,5.05.34.54.04,1.07.07,1.61.11,1.22.08,2.43.17,3.65.24.23.01.28.09.26.3-.06.74-.11,1.49-.15,2.24,0,.19-.06.23-.25.22m.14-2s-.02,0-.03,0c0,0,0,0,0,0-.06,0-.17,0-.31.02-.22.04-.58.14-.92.44-.03.02-.05.05-.08.07.01.01.02.03.03.04.28.35.62.51.85.58.17.05.3.07.35.07.01,0,.02,0,.02,0h-.01s-.01,0-.01,0c-.55-.03-1.09-.07-1.64-.1-.03.07-.05.14-.07.19-.05.16-.06.29-.06.33m1.88-1.66s0,0,0,0m0,0s0,0,0,0h0m-1.89,1.66h0c0-.18.02-.36.03-.53-.65-.04-1.29-.09-1.94-.13-.53-.04-1.07-.07-1.6-.11h0c-1.68-.12-3.36-.23-5.04-.34-.01.19-.03.38-.04.57h0s0,0,0,0c0-.06.02-.29-.06-.57-.54-.04-1.09-.07-1.63-.11h-.01s-.01,0-.01,0c0,0-.01,0-.02,0,0,0,0,0,0,0-.1,0-.19-.02-.2-.03,0,0,0,0,0,0,0,0,0,0,0,0-.01.19-.03.37-.04.56-.01.18.07.2.21.21.42.03.84.06,1.26.09,3.62.25,7.24.49,10.86.75m-1.75-.34s0,0,0,0m0,0h0s0,0,0,0m1.75.33h0s0,0,0,0Zm-1.75-.33s0,0,0,0h0Zm1.89-1.66h0s0,0,0,0Z"/>
  <path class="cls-2" d="m31.3,50.13l-.73.78s0,0,0,0c.26.24.5.47.76.72.13.12.26.25.4.38,0,0,.01.01.02.02h0s0,.01,0,.01m-.47-1.91l2.85-.98m-2.85.98l.39-.42-4.57-4.4c.18.22.37.44.56.65,0,0,0,0,0,0,.19.21.37.41.57.61,0,0,0,0,.01.01,1.04,1.07,2.16,2.06,3.3,3.02-.1.14-.19.31-.26.53,0,0,0,0,0,0Zm.47,1.91s-.01-.01-.02-.02l1.2-1.27s0,0,0,0c0,0,.01.01.02.02.06.05.11.08.18.01.1-.09.04-.15-.02-.2,0,0-.01-.01-.02-.02,0,0,0,0,0,0l1.12-1.35s-.02-.02-.03-.03c0,0,0,0,0,0,0,0-.03-.02-.06-.04h0m-2.38,2.89h0s0,0,0,0Zm2.38-2.89c-.06-.04-.23-.15-.46-.23-.31-.1-.7-.14-1.11-.03-.07.02-.13.04-.2.06,0,0,0,0,0,0-.26.1-.44.24-.54.33-.01,0-.02.02-.04.03.04.04.09.08.13.12.08.07.15.14.23.21.19.18.38.36.57.55.12.12.25.24.37.35l1.04-1.4Zm-2.42,2.84l1.23-1.25c-.11-.09-.22-.18-.32-.27-.31-.26-.62-.52-.93-.78l-.39.42c-.16.51-.08.99.08,1.35.13.29.3.47.34.52Zm.04.37s0,0,0,0l1.9-5.97c-1.58-1.16-3.08-2.52-4.3-4.24-.26-.36-.49-.73-.71-1.06l-.03-.05c-.21-.32-.39-.61-.59-.89-.45-.64-.84-1.11-1.24-1.43,0,.4.09.88.31,1.5.5,1.45,1.37,2.75,2.5,4.06.07.08.16.17.25.27h0c.09.1.18.2.28.31,1,1.06,2.06,2.07,3.17,3.1h0c.28.26.57.54.84.8.13.12.25.24.37.35h.01s.01.02.01.02c-.09-.09.06.06.09.09.07.07.27.28.42.62.17.39.26.91.09,1.47-.15.49-.45.81-.64.97-.17.15-.46.36-.86.47-.44.12-.86.08-1.21-.04-.3-.1-.5-.25-.57-.29-.04-.03-.07-.06-.08-.06Zm-7.63-17.83s0,0,0,0c0,0,0,0,.01,0h0Z"/>
  <path class="cls-2" d="m42.59,65.72c-.01-.18-.02-.37-.04-.55-1.77.12-3.55.24-5.32.36h0c-.21.01-.43.03-.64.04-1.3.09-2.6.18-3.9.26.07.94.13,1.88.19,2.82,2.27-.15,4.53-.3,6.8-.46,1.02-.07,2.05-.14,3.07-.21-.05-.76-.1-1.52-.16-2.28Zm-11.57.23s-.01,0,0,0h0Zm.1,2.83s0,0-.01,0h0s0,0,0,0Z"/>
  <path class="cls-2" d="m31.17,61.3s.02,0,.03,0c0,0,0,0,0,0,.54-.04,1.09-.08,1.63-.11.02-.08.03-.15.04-.2.02-.15.02-.27.01-.31,0,0,0,0,0,0h0s0,0,0,0c.01.17.03.34.04.51,1.18-.08,2.36-.16,3.53-.24h0c1.68-.12,3.36-.23,5.04-.34-.01-.18-.02-.36-.03-.54,0-.09-.01-.17-.01-.2,0,0,0,0,0,0-1.68.11-3.36.23-5.05.34-.54.04-1.07.07-1.61.11-1.22.08-2.43.17-3.65.24-.23.01-.28.09-.26.3.06.74.11,1.49.15,2.24,0,.19.06.23.25.22m-.14-2s.02,0,.03,0c0,0,0,0,0,0,.06,0,.17,0,.31.02.22.04.58.14.92.44.03.02.05.05.08.07-.01.01-.02.03-.03.04-.28.35-.62.51-.85.58-.17.05-.3.07-.35.07-.01,0-.02,0-.02,0h.01s.01,0,.01,0c.55-.03,1.09-.07,1.64-.1.03.07.05.14.07.19.05.16.06.29.06.33m-1.88-1.66s0,0,0,0m0,0s0,0,0,0h0m1.89,1.66h0c-.01-.18-.02-.36-.03-.53.65-.04,1.29-.09,1.94-.13.53-.04,1.07-.07,1.6-.11h0c1.68-.12,3.36-.23,5.04-.34.01.19.03.38.04.57h0s0,0,0,0c0-.06-.02-.29.06-.57.54-.04,1.09-.07,1.63-.11h.01s.01,0,.01,0c0,0,.01,0,.02,0,0,0,0,0,0,0,.1,0,.19-.02.2-.03,0,0,0,0,0,0,0,0,0,0,0,0,.01.19.03.37.04.56.01.18-.07.2-.21.21-.42.03-.84.06-1.26.09-3.62.25-7.24.49-10.86.75m1.75-.34s0,0,0,0m0,0h0m-1.75.34h0s0,0,0,0Zm1.75-.33s0,0,0,0h0Zm-1.89-1.66h0s0,0,0,0Z"/>
</svg>