<?xml version="1.0" encoding="UTF-8"?>
<svg id="Layer_1" data-name="Layer 1" xmlns="http://www.w3.org/2000/svg" viewBox="0 0 130 85">
  <defs>
    <style>
      .cls-1 {
        fill: none;
        stroke: #5ac4d2;
        stroke-width: 3px;
      }

      .cls-2 {
        fill: #5ac4d2;
      }
    </style>
  </defs>
  <path class="cls-2" d="m84.05,16.47s-.07-.06-.11-.1c-.27-1.87-8.19-3.38-17.94-3.38s-17.69,1.51-17.94,3.38c-.03.03-.07.06-.1.09,0,0-5.3,30.87,1.57,47.27,0,0,.12,1.43,2.89,2.05v3.16c0,1.54,1.27,2.8,2.84,2.8s2.84-1.25,2.84-2.8v-2.95c2.03-.04,3.72-.04,5-.02v7.17c0,1.57,1.3,2.85,2.89,2.85s2.89-1.27,2.89-2.85v-7.17c1.29-.01,2.97-.02,5,.02v2.95c0,1.54,1.27,2.8,2.84,2.8s2.84-1.25,2.84-2.8v-3.16c2.77-.62,2.89-2.05,2.89-2.05,6.87-16.4,1.57-47.27,1.57-47.27Zm-27.93,24.92c0,.57-.47,1.04-1.05,1.04h-5.09c-.58,0-1.05-.46-1.05-1.04v-1.04c0-.57.47-1.04,1.05-1.04h5.09c.58,0,1.05.46,1.05,1.04v1.04Zm9.88,20.59c-2.02,0-3.66-1.61-3.66-3.6s1.64-3.6,3.66-3.6,3.66,1.61,3.66,3.6-1.64,3.6-3.66,3.6Zm17.07-20.59c0,.57-.47,1.04-1.05,1.04h-5.09c-.58,0-1.05-.46-1.05-1.04v-1.04c0-.57.47-1.04,1.05-1.04h5.09c.58,0,1.05.46,1.05,1.04v1.04Zm-1.05-7.45h-32.03c-2.65,0-1.77-1.35-1.77-1.35,0,0,1.47-8.88,2.26-12.45.79-3.57,4.9-2.99,4.9-2.99h21.24s4.12-.58,4.9,2.99c.78,3.57,2.26,12.45,2.26,12.45,0,0,.88,1.35-1.77,1.35Z"/>
  <rect class="cls-1" x="1.5" y="1.5" width="127" height="82" rx="7.5" ry="7.5"/>
</svg>