<?xml version="1.0" encoding="UTF-8"?>
<svg id="Layer_1" data-name="Layer 1" xmlns="http://www.w3.org/2000/svg" viewBox="0 0 91.47 92">
  <defs>
    <style>
      .cls-1 {
        fill: none;
        stroke: #5ac4d2;
        stroke-width: 4px;
      }

      .cls-2 {
        fill: #5ac4d2;
      }
    </style>
  </defs>
  <path class="cls-1" d="m89.47,46c0,24.31-19.59,44-43.74,44S2,70.31,2,46,21.59,2,45.74,2s43.74,19.69,43.74,44Z"/>
  <path class="cls-2" d="m27.76,64.25c10.08,10.08,26.41,10.08,36.49,0,10.08-10.08,10.08-26.41,0-36.49-10.08-10.08-26.41-10.08-36.49,0-5.74,5.74-8.45,13.85-7.3,21.87.46,3.23,3.44,5.47,6.67,5.02,2.9-.41,5.06-2.9,5.06-5.84v-16.31h5.4v16.31c0,5.9-4.79,10.69-10.69,10.69-5.3,0-9.82-3.89-10.58-9.14-2.41-16.39,8.93-31.63,25.32-34.03,16.39-2.4,31.63,8.93,34.03,25.33,2.4,16.4-8.93,31.63-25.33,34.03-9.38,1.38-18.87-1.76-25.57-8.47l2.99-2.96Zm21.24-31.75v27h-6v-27h6Zm14.62,13.49c3.16,2.93,3.34,7.87.4,11.03-1.48,1.58-3.54,2.48-5.71,2.48h-4.8v-4.8h3.9c1.82,0,3.3-1.48,3.3-3.3,0-.91-.38-1.79-1.06-2.41l-3.76-3.49c-3.04-2.82-3.2-7.57-.38-10.6,1.42-1.52,3.41-2.39,5.5-2.39h3.6v4.8h-2.7c-1.66,0-3,1.34-3,3,0,.83.35,1.63.96,2.2"/>
</svg>