<?xml version="1.0" encoding="UTF-8"?>
<svg id="Layer_1" data-name="Layer 1" xmlns="http://www.w3.org/2000/svg" viewBox="0 0 130.6 84.6">
  <defs>
    <style>
      .cls-1 {
        fill: none;
        stroke: #5ac4d2;
        stroke-width: 3px;
      }

      .cls-2 {
        fill: #5ac4d2;
      }
    </style>
  </defs>
  <path class="cls-1" d="m120.59,1.5H10.01C5.31,1.5,1.5,5.31,1.5,10v64.6c0,4.69,3.81,8.5,8.51,8.5h110.58c4.7,0,8.51-3.81,8.51-8.5V10c0-4.69-3.81-8.5-8.51-8.5Z"/>
  <path class="cls-2" d="m92.48,63.76c-1.97,0-3.88.75-5.32,2.09-1.45,1.35-2.35,3.19-2.51,5.17h15.69c-.17-1.98-1.07-3.82-2.53-5.17-1.45-1.34-3.35-2.09-5.33-2.09h0Zm-50.84,0c-1.98,0-3.88.75-5.33,2.09-1.46,1.35-2.36,3.19-2.53,5.17h15.69c-.16-1.97-1.06-3.82-2.51-5.16-1.45-1.34-3.35-2.09-5.32-2.09h0Z"/>
  <path class="cls-2" d="m99.39,55.3l-9.38-9.46-13.36-20.46h7.66v-3.04h-45.46v3.48h4.81v12.75h-1.06v3.43h1.06v9.06h-7.81s-5.27,1.23-5.27,8.18v11.77h3.2c.18-1.96,1.09-3.79,2.54-5.12,1.45-1.33,3.34-2.06,5.3-2.06s3.86.74,5.3,2.06c1.45,1.33,2.35,3.16,2.53,5.12h35.18c.18-1.96,1.09-3.79,2.54-5.12,1.45-1.33,3.34-2.06,5.3-2.06s3.86.74,5.3,2.06c1.45,1.33,2.36,3.16,2.54,5.12h1.47v-12.07c-.63-1.32-1.44-2.55-2.42-3.64h0Zm-51.67-4.08v-5.41c.58,1.36,1.29,3.2,2.14,5.65-1.27-.17-2.14-.24-2.14-.24Zm39.16.32l-12.3-12.49,3.4-3.45-1.79-1.83-8.91,8.99,1.8,1.81,3.69-3.68,13.1,13.12-4.6,9.75h-15.66v-5.58l-3.11-1.9h1.75v-2.71h-6.31c-.99-.54-2.06-.94-3.16-1.19l-4.61-12.28c-.61-.66-1.42-1.11-2.3-1.27v-13.43h26.01l14.86,22.46-1.84,3.7Z"/>
  <path class="cls-2" d="m49.52,71.71c-.11,2.03-.99,3.94-2.46,5.34-1.46,1.4-3.41,2.18-5.43,2.18s-3.97-.78-5.43-2.18c-1.47-1.4-2.35-3.31-2.45-5.34-.02-.23-.02-.46,0-.7.11-2.02.98-3.93,2.45-5.33,1.46-1.39,3.4-2.17,5.42-2.17s3.96.78,5.42,2.17c1.47,1.4,2.34,3.31,2.45,5.33.04.23.05.46.05.7h0Z"/>
  <path d="m41.64,76.02c.85,0,1.69-.24,2.4-.71.71-.47,1.27-1.14,1.6-1.93.33-.79.42-1.65.26-2.49-.16-.84-.57-1.61-1.17-2.21s-1.37-1.02-2.21-1.19c-.84-.17-1.71-.09-2.5.24-.79.33-1.47.88-1.94,1.59-.48.71-.73,1.54-.73,2.4,0,.56.11,1.12.32,1.65.21.52.53,1,.93,1.4.4.4.87.72,1.39.94.52.22,1.08.33,1.64.33Z"/>
  <path class="cls-2" d="m100.38,71.71c-.11,2.03-.99,3.94-2.46,5.34-1.46,1.4-3.41,2.18-5.43,2.18s-3.97-.78-5.43-2.18c-1.47-1.4-2.35-3.31-2.45-5.34-.02-.23-.02-.46,0-.7.18-1.96,1.09-3.79,2.54-5.12,1.45-1.33,3.34-2.06,5.3-2.06s3.86.74,5.3,2.06c1.45,1.33,2.35,3.16,2.54,5.12.05.23.08.46.09.7h0Z"/>
  <path d="m92.5,76.02c.85,0,1.69-.24,2.41-.71.71-.47,1.27-1.14,1.6-1.93.33-.79.42-1.65.26-2.49-.16-.84-.57-1.61-1.17-2.22-.6-.61-1.37-1.02-2.21-1.19-.84-.17-1.71-.09-2.5.24-.79.33-1.47.88-1.94,1.59-.48.71-.73,1.54-.73,2.4,0,.56.11,1.12.32,1.65.21.52.53,1,.93,1.4.4.4.87.72,1.39.94.52.22,1.08.33,1.64.33Z"/>
</svg>