<?xml version="1.0" encoding="UTF-8"?>
<svg id="Layer_1" data-name="Layer 1" xmlns="http://www.w3.org/2000/svg" viewBox="0 0 130 85">
  <defs>
    <style>
      .cls-1 {
        fill: none;
        stroke: #5ac4d2;
        stroke-width: 3px;
      }

      .cls-2 {
        fill: #5ac4d2;
      }
    </style>
  </defs>
  <path class="cls-2" d="m30.85,46.07c2.78,0,5.38.78,7.61,2.11,1.49-1.31,3.14-2.56,4.96-3.63l-2.43-8.89c-.19-.68.24-1.24.95-1.24h5.91l-2.77-10.31h-2.84c-1.07,0-1.93-.87-1.93-1.93s.87-1.93,1.93-1.93h12.28c1.07,0,1.93.86,1.93,1.93s-.87,1.93-1.93,1.93h-5.43l6.32,23.51,32.67-10.33-3.41-12.04c-.14-.49-.08-1.02.17-1.46l3.83-6.93h-8.72c-1.07,0-1.93-.87-1.93-1.93s.87-1.93,1.93-1.93h11.99c.69,0,1.32.36,1.66.95.35.59.36,1.32.03,1.91l-5.03,9.1,6.02,21.28c.7-.1,1.41-.17,2.15-.17,8.2,0,14.85,6.65,14.85,14.85,0,8.2-6.65,14.84-14.85,14.85-8.2,0-14.84-6.65-14.85-14.85,0-6.12,3.7-11.36,8.98-13.64l-.72-2.55-32.76,10.36,1.39,5.16c.16.58.03,1.2-.33,1.68-.37.48-.94.76-1.53.76h-1.59s-9.76,0-9.76,0c-.88,7.36-7.13,13.07-14.73,13.07-8.2,0-14.84-6.65-14.85-14.85,0-8.2,6.65-14.85,14.85-14.85Zm54.94,14.85c.01,6.06,4.92,10.97,10.98,10.98,6.06,0,10.97-4.91,10.98-10.98-.01-6.06-4.92-10.97-10.98-10.98-.37,0-.73.02-1.08.06l2.94,10.4c.29,1.03-.31,2.1-1.33,2.39-.18.05-.35.07-.53.07-.84,0-1.62-.56-1.86-1.41l-2.94-10.39c-3.65,1.78-6.17,5.52-6.18,9.86Zm-49.34-2.09h5.18c-.41-2.12-1.44-4.03-2.88-5.52-.25.26-.5.53-.73.79-.96,1.07-1.79,2.12-2.51,3.08.4.49.72,1.04.95,1.65Zm5.1-8.19c2.11,2.19,3.54,5.03,3.99,8.19h1.78l-2.84-10.39c-1.03.67-2.01,1.42-2.93,2.2Zm-10.69,21.26c5.46,0,9.97-3.99,10.82-9.21h-5.13c-.76,2.44-3.01,4.22-5.7,4.22-3.31,0-5.99-2.69-5.99-5.99s2.68-5.99,5.99-5.99c.47,0,.93.07,1.37.17.92-1.26,2.03-2.66,3.35-4.08-1.43-.68-3.02-1.08-4.71-1.08-6.06.01-10.97,4.92-10.98,10.98,0,6.06,4.92,10.97,10.98,10.98Z"/>
  <rect class="cls-1" x="1.5" y="1.5" width="127" height="82" rx="7.5" ry="7.5"/>
</svg>