<?xml version="1.0" encoding="UTF-8"?>
<svg id="Layer_1" data-name="Layer 1" xmlns="http://www.w3.org/2000/svg" viewBox="0 0 91.47 92">
  <defs>
    <style>
      .cls-1 {
        fill: none;
      }

      .cls-1, .cls-2 {
        stroke: #5ac4d2;
        stroke-width: 4px;
      }

      .cls-2 {
        fill: #5ac4d2;
      }
    </style>
  </defs>
  <path class="cls-1" d="m89.47,46c0,24.31-19.59,44-43.74,44S2,70.31,2,46,21.59,2,45.74,2s43.74,19.69,43.74,44Z"/>
  <path class="cls-2" d="m54.38,44.4h0c-3.53,5.6-7.04,11.17-10.55,16.73,1.15-4.3,2.31-8.62,3.47-12.95l.68-2.52h-11.45c3.22-5.37,6.43-10.71,9.63-16.04-.8,3.97-1.6,7.94-2.42,11.9-.06.26-.13.74.02,1.27.2.7.7,1.22,1.33,1.46.45.17.86.16.98.15,0,0,0,0,0,0,.06,0,.13,0,.15,0,0,0,0,0,0,0,0,0,.01,0,.01,0h8.14Z"/>
</svg>