<?xml version="1.0" encoding="UTF-8"?>
<svg id="Layer_1" data-name="Layer 1" xmlns="http://www.w3.org/2000/svg" viewBox="0 0 91.47 92">
  <defs>
    <style>
      .cls-1 {
        fill: #fff;
      }

      .cls-2 {
        fill: #00d6e9;
      }

      .cls-3 {
        stroke: #00d6e9;
        stroke-width: 4px;
      }

      .cls-3, .cls-4 {
        fill: none;
      }
    </style>
  </defs>
  <path class="cls-3" d="m89.47,46c0,24.31-19.59,44-43.74,44S2,70.31,2,46,21.59,2,45.74,2s43.74,19.69,43.74,44Z"/>
  <path class="cls-2" d="m30,69.25V25.26c0-2.73,2.22-4.95,4.95-4.95h4.42v-3.31h11.56v3.31h4.19c2.73,0,4.95,2.21,4.95,4.95v44c0,2.73-2.22,4.95-4.95,4.95h-20.17c-2.73,0-4.95-2.22-4.95-4.95Zm3.31,0c0,.91.75,1.65,1.66,1.65h20.15c.91,0,1.65-.75,1.65-1.65V25.26c0-.91-.75-1.65-1.65-1.65h-20.17c-.91,0-1.66.75-1.66,1.65v44h.02Z"/>
  <path class="cls-2" d="m34.8,69.1V25.42h20.32v43.68h-20.32Z"/>
  <path class="cls-1" d="m36.84,60.05v-23.62c0-1.46,1.19-2.66,2.66-2.66h2.37v-1.77h6.21v1.77h2.25c1.46,0,2.66,1.19,2.66,2.66v23.62c0,1.46-1.19,2.66-2.66,2.66h-10.83c-1.46,0-2.66-1.19-2.66-2.66Zm1.77,0c0,.49.4.88.89.88h10.82c.49,0,.88-.4.88-.88v-23.62c0-.49-.4-.88-.88-.88h-10.83c-.49,0-.89.4-.89.88v23.62h0Z"/>
  <path class="cls-4" d="m39.42,59.97v-23.44h10.91v23.44h-10.91Z"/>
</svg>