<?xml version="1.0" encoding="UTF-8"?>
<svg id="Layer_1" data-name="Layer 1" xmlns="http://www.w3.org/2000/svg" viewBox="0 0 130 85">
  <defs>
    <style>
      .cls-1 {
        fill: none;
        stroke: #5ac4d2;
        stroke-width: 3px;
      }

      .cls-2 {
        fill: #5ac4d2;
      }
    </style>
  </defs>
  <path class="cls-2" d="m96.04,40.36c-.53,0-1.05.02-1.56.07-.92.08-1.82-.41-2.14-1.27l-10.44-27.93c-.28-.74-.98-1.23-1.78-1.23h-6.72c-1.05,0-1.89.84-1.89,1.88v1.88c0,1.04.85,1.88,1.89,1.88h2.77c.79,0,1.5.49,1.78,1.23l.56,1.5c.46,1.23-.46,2.53-1.78,2.53h-15.18c-.81,0-1.53.51-1.79,1.27l-2.97,8.55c-.26.76-.98,1.27-1.79,1.27h-23.28c-1.05,0-1.89.84-1.89,1.88v1.88c0,1.04.85,1.88,1.89,1.88h10.15c.63,0,1.23.32,1.58.84l8.95,13.38c.72,1.07-.06,2.51-1.36,2.51-.79,0-1.47-.57-1.66-1.34-1.87-7.27-8.53-12.67-16.43-12.67-9.35,0-16.96,7.55-16.96,16.82s7.61,16.82,16.96,16.82c7.83,0,14.43-5.29,16.37-12.45.24-.89,1.02-1.55,1.94-1.55h18.11c.65,0,1.26-.33,1.6-.88l12.27-19.36c.84-1.32,2.83-1.11,3.38.35l.38,1.03c.32.86-.04,1.81-.79,2.34-4.32,3.05-7.14,8.06-7.14,13.71,0,9.28,7.61,16.82,16.96,16.82s16.96-7.55,16.96-16.82-7.61-16.82-16.96-16.82Zm-54.63,19.64c1.24,0,2.15,1.17,1.58,2.27-1.87,3.62-5.67,6.1-10.04,6.1-6.22,0-11.27-5.02-11.27-11.18s5.06-11.18,11.27-11.18c4.37,0,8.17,2.48,10.04,6.1.57,1.1-.34,2.27-1.58,2.27h-7.23c-1.05,0-1.89.84-1.89,1.88v1.88c0,1.04.85,1.88,1.89,1.88h7.23Zm54.63,8.36c-6.22,0-11.27-5.02-11.27-11.18,0-2.91,1.13-5.57,2.97-7.56.84-.91,2.27-.47,2.7.68l2.28,6.09c.36.97,1.45,1.47,2.44,1.11l1.78-.65c.98-.36,1.48-1.44,1.12-2.42l-2.74-7.33c-.2-.53.16-1.11.73-1.11,6.22,0,11.27,5.02,11.27,11.18s-5.06,11.18-11.27,11.18Z"/>
  <path class="cls-2" d="m91.98,22.02l-3.53,1.37,3.01,7.61,3.53-1.37c.97-.38,1.45-1.47,1.07-2.44l-1.63-4.11c-.38-.97-1.48-1.44-2.46-1.06Z"/>
  <rect class="cls-1" x="1.5" y="1.5" width="127" height="82" rx="7.5" ry="7.5"/>
</svg>