<?xml version="1.0" encoding="UTF-8"?>
<svg id="Layer_1" data-name="Layer 1" xmlns="http://www.w3.org/2000/svg" viewBox="0 0 130 85">
  <defs>
    <style>
      .cls-1 {
        fill: none;
        stroke: #5ac4d2;
        stroke-width: 3px;
      }

      .cls-2 {
        fill: #5ac4d2;
      }

      .cls-3 {
        fill: #c4c4c4;
      }
    </style>
  </defs>
  <path d="m37.88,51.96c-4.35,0-7.88,3.54-7.88,7.88s3.53,7.88,7.88,7.88,7.88-3.54,7.88-7.88c0-4.34-3.53-7.88-7.88-7.88Z"/>
  <path d="m99,51.16c-8.03,0-14.56,6.53-14.56,14.56s6.53,14.57,14.56,14.57,14.57-6.54,14.57-14.57c0-8.03-6.54-14.56-14.57-14.56Zm0,21.42c-3.79,0-6.85-3.07-6.85-6.85s3.07-6.85,6.85-6.85,6.86,3.07,6.86,6.85-3.07,6.85-6.86,6.85Z"/>
  <path d="m37.45,39.39c-11.28,0-20.45,9.17-20.45,20.45s9.17,20.45,20.45,20.45,20.46-9.18,20.46-20.45c0-11.28-9.18-20.45-20.46-20.45Zm0,31.97c-6.35,0-11.52-5.17-11.52-11.52s5.17-11.52,11.52-11.52,11.52,5.17,11.52,11.52-5.17,11.52-11.52,11.52Z"/>
  <path d="m72.18,45.77c6.65,1.45,11.55,4.39,14.6,6.77-3.6,3.24-5.87,7.91-5.87,13.12,0,.24.03.48.04.72h-20.92c.61-2.08.95-4.27.95-6.55,0-12.96-10.54-23.51-23.51-23.51-5.77,0-11.06,2.1-15.15,5.57l-1.75-.87,2.11-5.28s.68-2.22,4.12-2.22h.65s0-.07,0-.11l2.87-16.69c-.22.04-.44.07-.66.11-.99.2-1.94-.44-2.14-1.42-.2-.99.44-1.94,1.43-2.14,15.63-3.15,36.4.47,37.28.62.72.13,1.29.67,1.45,1.38l4.26,18.31c.52.02,1.05.04,1.6.07h.91l2.73.27c7.87.7,17.62,2.37,25.11,5.16,1.52.58,2.08,5.39,2.28,9.95-1.86-.67-3.86-1.05-5.95-1.05-3.86,0-7.42,1.25-10.33,3.36-3.23-2.6-8.61-5.89-16.07-7.42v1.85Z"/>
  <path class="cls-3" d="m94.18,38.96c-.19-.47-.72-.7-1.18-.51-.47.18-.7.71-.51,1.18l1.48,3.76c.14.36.48.58.85.58.11,0,.22-.02.33-.06.47-.19.7-.71.51-1.18l-1.47-3.76Z"/>
  <path class="cls-3" d="m89.89,38.96c-.19-.47-.72-.7-1.18-.51-.47.18-.7.71-.52,1.18l1.47,3.76c.14.36.48.58.85.58.11,0,.22-.02.33-.06.47-.19.7-.71.52-1.18l-1.48-3.76Z"/>
  <path class="cls-3" d="m42.01,32.18c1.21.1,2.59.43,4.02.9v-16.53h-12.98l-2.69,15.63h11.65Z"/>
  <path class="cls-3" d="m67.81,47.09h0,0s0,0,0,0h-6.59c-2.19-5.88-6.88-10.08-11.55-12.5v-18.04h14.12l4.02,17.31v13.23Z"/>
  <rect class="cls-1" x="1.5" y="1.5" width="127" height="82" rx="7.5" ry="7.5"/>
  <path class="cls-2" d="m37.88,51.96c-4.35,0-7.88,3.54-7.88,7.88s3.53,7.88,7.88,7.88,7.88-3.54,7.88-7.88c0-4.34-3.53-7.88-7.88-7.88Z"/>
  <path class="cls-2" d="m99,51.16c-8.03,0-14.56,6.53-14.56,14.56s6.53,14.57,14.56,14.57,14.57-6.54,14.57-14.57c0-8.03-6.54-14.56-14.57-14.56Zm0,21.42c-3.79,0-6.85-3.07-6.85-6.85s3.07-6.85,6.85-6.85,6.86,3.07,6.86,6.85-3.07,6.85-6.86,6.85Z"/>
  <path class="cls-2" d="m37.45,39.39c-11.28,0-20.45,9.17-20.45,20.45s9.17,20.45,20.45,20.45,20.46-9.18,20.46-20.45c0-11.28-9.18-20.45-20.46-20.45Zm0,31.97c-6.35,0-11.52-5.17-11.52-11.52s5.17-11.52,11.52-11.52,11.52,5.17,11.52,11.52-5.17,11.52-11.52,11.52Z"/>
  <path class="cls-2" d="m72.18,45.77c6.65,1.45,11.55,4.39,14.6,6.77-3.6,3.24-5.87,7.91-5.87,13.12,0,.24.03.48.04.72h-20.92c.61-2.08.95-4.27.95-6.55,0-12.96-10.54-23.51-23.51-23.51-5.77,0-11.06,2.1-15.15,5.57l-1.75-.87,2.11-5.28s.68-2.22,4.12-2.22h.65s0-.07,0-.11l2.87-16.69c-.22.04-.44.07-.66.11-.99.2-1.94-.44-2.14-1.42-.2-.99.44-1.94,1.43-2.14,15.63-3.15,36.4.47,37.28.62.72.13,1.29.67,1.45,1.38l4.26,18.31c.52.02,1.05.04,1.6.07h.91l2.73.27c7.87.7,17.62,2.37,25.11,5.16,1.52.58,2.08,5.39,2.28,9.95-1.86-.67-3.86-1.05-5.95-1.05-3.86,0-7.42,1.25-10.33,3.36-3.23-2.6-8.61-5.89-16.07-7.42v1.85Z"/>
  <path d="m94.18,38.96c-.19-.47-.72-.7-1.18-.51-.47.18-.7.71-.51,1.18l1.48,3.76c.14.36.48.58.85.58.11,0,.22-.02.33-.06.47-.19.7-.71.51-1.18l-1.47-3.76Z"/>
  <path d="m89.89,38.96c-.19-.47-.72-.7-1.18-.51-.47.18-.7.71-.52,1.18l1.47,3.76c.14.36.48.58.85.58.11,0,.22-.02.33-.06.47-.19.7-.71.52-1.18l-1.48-3.76Z"/>
  <path d="m42.01,32.18c1.21.1,2.59.43,4.02.9v-16.53h-12.98l-2.69,15.63h11.65Z"/>
  <path d="m67.81,47.09h0,0s0,0,0,0h-6.59c-2.19-5.88-6.88-10.08-11.55-12.5v-18.04h14.12l4.02,17.31v13.23Z"/>
  <rect class="cls-1" x="1.5" y="1.5" width="127" height="82" rx="7.5" ry="7.5"/>
</svg>