<?xml version="1.0" encoding="UTF-8"?>
<svg id="Layer_1" data-name="Layer 1" xmlns="http://www.w3.org/2000/svg" viewBox="0 0 130 85">
  <defs>
    <style>
      .cls-1 {
        fill: #fff;
      }

      .cls-2 {
        stroke-miterlimit: 10;
      }

      .cls-2, .cls-3 {
        stroke: #5ac4d2;
      }

      .cls-3 {
        fill: none;
        stroke-width: 3px;
      }

      .cls-4 {
        fill: #5ac4d2;
      }
    </style>
  </defs>
  <rect class="cls-3" x="1.5" y="1.5" width="127" height="82" rx="7.5" ry="7.5"/>
  <path class="cls-4" d="m113.15,45.55l-19.39-3.41c-1-.18-1.93-.62-2.71-1.27l-16.32-13.52c-1.04-.87-2.36-1.35-3.71-1.35h-28.73c-.86,0-1.7.19-2.48.56-.78.37-1.46.91-2.01,1.58l-10.83,13.13h-8.12c-1.55,0-3.03.62-4.13,1.72-1.1,1.1-1.71,2.6-1.72,4.17v14.79c0,.77.15,1.54.44,2.25.29.71.72,1.36,1.26,1.91.54.55,1.18.98,1.89,1.28.71.3,1.46.45,2.23.45h93.35c.76,0,1.52-.15,2.23-.45.71-.3,1.35-.73,1.89-1.28.54-.55.97-1.2,1.26-1.91.29-.71.44-1.48.44-2.25v-10.57c0-1.39-.49-2.74-1.38-3.81-.89-1.07-2.12-1.78-3.47-2.02Zm-63.84-4.68h-16.14l8.34-10.71c.25-.35.57-.64.95-.84.38-.2.8-.3,1.22-.29h5.63v11.84Zm6.5,0v-11.84h14.92c.59,0,1.16.23,1.6.65l13.27,11.2h-29.79Z"/>
  <path d="m64.53,46.27h-8.72v2.76h8.72v-2.76Z"/>
  <path class="cls-1" d="m48.51,65.86c0,.68-.04,1.35-.16,2.02h-2c-.51,2.33-1.8,4.42-3.64,5.91-1.84,1.49-4.14,2.31-6.5,2.31s-4.66-.81-6.5-2.31c-1.84-1.49-3.13-3.58-3.64-5.91h-2c-.12-.67-.17-1.34-.16-2.02-.06-3.35,1.19-6.59,3.48-9,2.29-2.42,5.44-3.82,8.75-3.89,1.65.02,3.28.36,4.8,1.02,1.52.66,2.89,1.61,4.04,2.81,1.15,1.2,2.05,2.62,2.66,4.17.6,1.55.9,3.22.86,4.89Z"/>
  <path class="cls-1" d="m109.94,65.86c0,.68-.04,1.35-.16,2.02h-1.99c-.51,2.33-1.8,4.42-3.65,5.91-1.84,1.49-4.14,2.31-6.5,2.31s-4.66-.81-6.5-2.31c-1.84-1.49-3.13-3.58-3.64-5.91h-2c-.12-.67-.17-1.34-.16-2.02-.1-1.68.15-3.37.72-4.95s1.46-3.03,2.6-4.26c1.15-1.23,2.53-2.2,4.06-2.87,1.53-.67,3.18-1.01,4.85-1.01s3.32.34,4.85,1.01c1.53.67,2.91,1.64,4.06,2.87,1.15,1.23,2.03,2.68,2.6,4.26.57,1.58.82,3.27.72,4.95h.14Z"/>
  <path class="cls-4" d="m46.68,65.6c0,.75-.08,1.5-.24,2.24-.51,2.33-1.8,4.42-3.64,5.91-1.84,1.49-4.14,2.31-6.5,2.31s-4.66-.81-6.5-2.31c-1.84-1.49-3.13-3.58-3.64-5.91-.16-.74-.24-1.49-.24-2.24.12-2.71,1.26-5.26,3.2-7.13,1.93-1.87,4.51-2.92,7.19-2.92s5.25,1.05,7.19,2.92c1.93,1.87,3.08,4.43,3.2,7.13Z"/>
  <path class="cls-2" d="m36.28,71.13c3.02,0,5.47-2.47,5.47-5.53s-2.45-5.53-5.47-5.53-5.47,2.47-5.47,5.53,2.45,5.53,5.47,5.53Z"/>
  <path class="cls-4" d="m97.71,76.09c5.73,0,10.37-4.7,10.37-10.49s-4.64-10.49-10.37-10.49-10.37,4.7-10.37,10.49,4.64,10.49,10.37,10.49Z"/>
  <path class="cls-2" d="m97.71,71.13c3.02,0,5.47-2.47,5.47-5.53s-2.45-5.53-5.47-5.53-5.47,2.47-5.47,5.53,2.45,5.53,5.47,5.53Z"/>
</svg>