<?xml version="1.0" encoding="UTF-8"?>
<svg id="Layer_1" data-name="Layer 1" xmlns="http://www.w3.org/2000/svg" viewBox="0 0 130 85">
  <defs>
    <style>
      .cls-1 {
        fill: none;
        stroke: #5ac4d2;
        stroke-width: 3px;
      }

      .cls-2 {
        fill: #5ac4d2;
      }
    </style>
  </defs>
  <rect class="cls-1" x="1.5" y="1.5" width="127" height="82" rx="7.5" ry="7.5"/>
  <path class="cls-2" d="m43.61,68.54c.03,2.01-.58,3.99-1.74,5.63-1.16,1.65-2.81,2.88-4.72,3.53-1.47.51-3.04.66-4.58.44-1.54-.22-3.01-.81-4.28-1.71s-2.3-2.09-3.02-3.48c-.71-1.38-1.09-2.92-1.09-4.47.04-.62.15-1.23.33-1.82.44-2.2,1.64-4.17,3.37-5.59,1.74-1.42,3.91-2.19,6.15-2.19s4.41.78,6.15,2.19c1.74,1.42,2.93,3.39,3.37,5.59.09.62.11,1.25.06,1.88Z"/>
  <path d="m33.9,73.95c2.99,0,5.41-2.42,5.41-5.41s-2.42-5.41-5.41-5.41-5.41,2.42-5.41,5.41,2.42,5.41,5.41,5.41Z"/>
  <path class="cls-2" d="m105.42,42.11l-9.16-13.49h-10.79v-11.62H19v49.67h1.82c.46-3.14,2.03-6.01,4.43-8.09,2.4-2.08,5.47-3.22,8.65-3.22s6.24,1.14,8.65,3.22c2.4,2.08,3.98,4.95,4.43,8.09h27.59c.44-3.16,2-6.06,4.41-8.16,2.41-2.1,5.49-3.25,8.68-3.25s6.28,1.16,8.68,3.25c2.41,2.1,3.97,4.99,4.41,8.16h9.3v-19.92c0-1.23-.49-2.41-1.36-3.28-.87-.87-2.05-1.36-3.28-1.36Zm-16.2-.28v-9.99h5.82l5.79,9.99h-11.62Z"/>
  <path class="cls-2" d="m97.33,68.54c0,1.56-.38,3.09-1.1,4.47-.72,1.38-1.76,2.57-3.03,3.47-1.27.9-2.74,1.48-4.29,1.69-1.54.21-3.11.05-4.58-.47-1.91-.65-3.56-1.9-4.71-3.55-1.16-1.65-1.76-3.63-1.72-5.64,0-.63.06-1.26.19-1.88.44-2.2,1.64-4.17,3.37-5.59s3.91-2.19,6.15-2.19,4.41.78,6.15,2.19c1.74,1.42,2.93,3.39,3.37,5.59.14.63.2,1.26.19,1.9Z"/>
  <path d="m87.62,73.95c2.99,0,5.41-2.42,5.41-5.41s-2.42-5.41-5.41-5.41-5.41,2.42-5.41,5.41,2.42,5.41,5.41,5.41Z"/>
</svg>