<?xml version="1.0" encoding="UTF-8"?>
<svg id="Layer_1" data-name="Layer 1" xmlns="http://www.w3.org/2000/svg" viewBox="0 0 91.47 92">
  <defs>
    <style>
      .cls-1 {
        fill: none;
        stroke: #5ac4d2;
        stroke-width: 4px;
      }

      .cls-2 {
        fill-rule: evenodd;
      }

      .cls-2, .cls-3 {
        fill: #5ac4d2;
      }
    </style>
  </defs>
  <path class="cls-1" d="m89.47,46c0,24.31-19.59,44-43.74,44S2,70.31,2,46,21.59,2,45.74,2s43.74,19.69,43.74,44Z"/>
  <path class="cls-3" d="m45.54,26.91c.3,0,.59.1.8.33.17.18.3.39.37.64.05.16.08.32.11.49.07.38.11.76.11,1.15v1.21s0,9.54,0,9.54c-.01.48-.02.71-.13.83-.1.1-.29.11-.65.13-.03,0-.06,0-.09,0-.03,0-.06,0-.09,0-.13,0-.26,0-.39,0h0c-.26,0-.52,0-.78,0h0q-.88,0-.92-.94v-1.42c0-.12,0-.25,0-.37,0-.11,0-.22,0-.33,0-.23,0-.47,0-.7,0-.24,0-.47,0-.71,0-.24,0-.47,0-.71,0-.23,0-.47,0-.7s0-.47,0-.7,0-.47,0-.71c0-.24,0-.47,0-.71s0-.47,0-.7v-.02c0-.23,0-.46,0-.69,0-.47,0-.95,0-1.42l.03-1.26c0-.36.07-.73.17-1.07l.05-.15c.07-.23.16-.46.33-.62.23-.22.54-.32.85-.33.07,0,.14,0,.21,0Z"/>
  <path class="cls-3" d="m48.79,62.85c.06-.07.11-.14.16-.22.2-.33.39-.67.58-1,.05-.08.09-.17.13-.27l.3-.82c.05-.14.08-.31.1-.46l.09-.78c.05-.42.08-.85,0-1.27-.02-.12-.05-.23-.1-.34-.06-.11-.15-.2-.24-.28-.12-.1-.26-.18-.41-.22-.21-.05-.43-.06-.65-.07-.48.03-.87.48-.86.99v.05c0,.27,0,.54-.02.8-.04.76-.24,1.46-.6,2.11-.01.02-.02.04-.04.07-.14.26-.29.53-.46.76-.04.05-.07.1-.11.15-.17.22-.34.43-.41.72,0,.01,0,.02-.01.03,0,.01-.02.02-.03.04,0,0-.01.01-.02.02,0,0,0,0,0,0,0,0,0,0,0,0,.31.48.71.78,1.26.81.36-.01.68-.12.96-.35.08-.07.15-.16.21-.25.02-.03.05-.07.07-.1.03-.04.06-.08.1-.13Z"/>
  <path class="cls-2" d="m48.75,69.61c-.85.27-1.74.39-2.63.39h-1.38c-.83,0-1.68-.12-2.47-.38-.15-.07-.3-.14-.45-.21l-.24-.11c-.15-.07-.31-.14-.46-.21-.15-.07-.29-.17-.42-.27-.17-.13-.36-.25-.55-.37-.1-.06-.2-.13-.3-.2-.03-.02-.05-.04-.08-.06l-.08-.08c-.83-.74-1.66-1.48-2.25-2.48-.08-.13-.17-.25-.25-.38-.08-.15-.16-.3-.24-.45-.08-.15-.16-.3-.24-.45-.43-.99-.79-2-.96-3.09l-.13-.86s0-.03,0-.04c0,0,0,0,0-.01,0-.01,0-.03,0-.04,0-.03-.01-.05-.01-.08,0-.05,0-.1,0-.15h0c0-.47,0-.94,0-1.41,0-.07.02-.15.03-.22.04-.29.08-.57.08-.86,0-.08.02-.18.05-.27.01-.05.03-.1.04-.15.16-.91.46-1.76.82-2.59.02-.04.04-.07.06-.1v-.02s.06-.09.07-.15c.01-.04.03-.09.05-.13.18-.32.36-.64.54-.96.08-.15.18-.29.28-.42l.08-.1c.6-.76,1.2-1.53,1.98-2.09.05-.04.11-.08.17-.11.16-.1.32-.2.35-.41,0-.08,0-.17,0-.25,0-.05,0-.11,0-.16v-.32s0-.03,0-.04c0-.01,0-.03,0-.04s0-.03,0-.04c0-.01,0-.03,0-.04,0-.11,0-.23,0-.34.02-.41.03-.6-.05-.69-.07-.07-.21-.06-.46-.05h-1.04c-.09,0-.18,0-.27,0h-1.56c-.22,0-.44-.04-.65-.12l-.05-.02c-.22-.08-.42-.22-.59-.39-.16-.16-.29-.36-.38-.57-.09-.22-.15-.45-.15-.71.08-1.1.74-1.78,1.74-1.79.08,0,.15,0,.23,0h0s.08,0,.11,0c.03,0,.05,0,.08,0,.03,0,.06,0,.09,0,0,0,.02,0,.03,0,.02,0,.03,0,.05,0h0s.02,0,.03,0c.34,0,.69,0,1.03,0h1.29c.07,0,.15,0,.22,0,.07,0,.15,0,.22,0,.1,0,.09-.07.08-.14,0-.01,0-.02,0-.04,0-.06,0-.13,0-.19,0-.05,0-.1,0-.15,0,0,0-.02,0-.02,0,0,0-.01,0-.02,0-.01,0-.02,0-.03,0,0,0,0,0-.01,0-.01,0-.03,0-.04,0-.01,0-.03,0-.04v-.48c0-.06,0-.12.01-.17,0-.1.02-.2,0-.29-.02-.15-.13-.16-.26-.15-.18.02-.35.02-.53.02h-.77c-.09,0-.18,0-.27,0-.43,0-.86,0-1.29,0-.17,0-.33,0-.49,0-.01,0-.03,0-.04,0,0,0-.01,0-.02,0-.01,0-.02,0-.04,0-.02,0-.04,0-.06,0-.15-.06-.3-.12-.45-.18-.13-.05-.26-.12-.37-.23-.1-.1-.2-.21-.28-.33-.15-.2-.26-.44-.3-.69-.02-.14-.03-.28-.03-.42.01-.4.16-.8.4-1.11.22-.28.51-.49.84-.57.27-.06.55-.07.83-.07.43,0,.86,0,1.29,0h.56c.12,0,.26.02.4.03.43.05.88.1.86-.3v-.15s0-.03,0-.05c0-.02,0-.03,0-.05,0-.02,0-.04,0-.06,0,0,0-.02,0-.03v-.49s0-.03,0-.04c0-.01,0-.03,0-.04s0-.03,0-.04c0-.01,0-.03,0-.04v-.05s0-.05,0-.07c0-.04,0-.08,0-.12,0-.02,0-.04.01-.06.02-.11.05-.23-.17-.21-.04,0-.09,0-.13,0-.03,0-.05,0-.08,0-.02,0-.04,0-.06,0h-1.56c-.15,0-.31,0-.46,0-.3,0-.61,0-.91,0-.9,0-1.46-.43-1.78-1.35-.08-.31-.05-.61.02-.91.08-.31.25-.58.46-.81.18-.2.39-.38.65-.45.3-.08.6-.09.91-.09.22,0,.43,0,.65,0,.11,0,.22,0,.32,0,.11,0,.21,0,.32,0,.22,0,.43,0,.65,0,.22,0,.43,0,.65,0,.27.01.4.02.46-.05.06-.07.06-.21.04-.5v-.14s0-.02,0-.03c0,0,0-.01,0-.02,0-.02,0-.03,0-.05,0-.01,0-.03,0-.04,0-.01,0-.03,0-.04v-.11s0-.02,0-.03c0,0,0,0,0-.01,0-.02,0-.03,0-.05,0-.01,0-.03,0-.04,0-.01,0-.03,0-.04v-.15s0-.09,0-.14c0-.05,0-.09,0-.14,0-.02,0-.03,0-.05,0-.06.01-.12-.03-.13,0,0,0,0-.01,0,0,0-.02,0-.03,0-.15,0-.29,0-.44,0-.43,0-.86,0-1.29,0h0c-.4,0-.81,0-1.21,0-1.22.05-1.87-.45-2.12-1.42-.03-.12-.04-.26-.04-.38,0-.12.01-.24.04-.36.04-.15.09-.3.15-.45.09-.22.25-.41.42-.58.13-.13.27-.24.44-.3.32-.11.65-.12.99-.13h.05c.11,0,.22,0,.33,0,.1,0,.21,0,.31,0,.21,0,.43,0,.64,0,.12,0,.25,0,.37,0,.09,0,.19,0,.29,0,.59.02,1.28.04,1.17-.52-.04-.17-.01-.35.01-.53,0-.01,0-.02,0-.03,0-.02,0-.05,0-.07.02-.14.03-.28.05-.42,0-.08.02-.16.03-.24.03-.23.08-.46.15-.68l.29-.86c.02-.07.06-.13.1-.2.04-.06.07-.11.09-.17h0c.03-.09.06-.17.12-.24l.53-.69c.17-.22.36-.43.56-.61.07-.06.15-.13.22-.19.81-.62,1.68-.99,2.69-.86.27.03.55.03.82,0,.88-.11,1.62.26,2.33.76.12.09.24.18.36.27.03.03.07.05.1.08.02.02.03.04.05.06.02.03.03.05.06.07,0,0,.02,0,.03.01,0,0,.02,0,.02,0,0,0,0,0,0,0l.02.02s0,0,0,0c0,0,0,0,0,0,.72.76,1.23,1.68,1.52,2.72.01.04.02.09.02.13l.08.73c.04.41.04.82.04,1.24,0,.52,0,1.04,0,1.55v.03c0,.42,0,.84,0,1.27v.02s0,.04,0,.06c0,.24,0,.48,0,.71,0,.22,0,.43,0,.65,0,.18,0,.35,0,.53,0,.33,0,.65,0,.98v.03c0,.41,0,.82,0,1.23,0,.06,0,.12,0,.18,0,.42,0,.85,0,1.27,0,.51,0,1.02,0,1.52,0,.02,0,.04,0,.06,0,.41,0,.82,0,1.22,0,.52,0,1.04,0,1.56,0,.37,0,.75,0,1.12v.2s0,.03,0,.03c0,.21,0,.41,0,.62,0,.26,0,.52,0,.79,0,.21,0,.43,0,.64,0,.28,0,.55,0,.83v.03c0,.42,0,.83,0,1.25,0,.03,0,.07,0,.1,0,.31,0,.63,0,.94,0,.16,0,.32,0,.49,0,.23,0,.45.03.68,0,.08,0,.15,0,.23v.09c0,.26,0,.52-.02.78-.01.23.19.35.4.48.06.04.12.07.18.11.06.04.11.08.17.12.62.51,1.19,1.08,1.71,1.71.23.27.43.58.62.88.11.18.23.35.35.52.08.16.17.32.25.47l.11.2c.39.94.74,1.9.95,2.9.06.47.12.95.17,1.42,0,.36,0,.71-.01,1.07,0,.32-.05.64-.09.95-.01.09-.03.19-.04.28,0,.07-.02.14-.02.21-.03.28-.07.56-.14.83-.21.8-.47,1.57-.8,2.31-.04.09-.08.19-.12.28-.02.04-.04.08-.07.13-.02.04-.04.08-.06.12,0,0,0,0,0,0,0,0,0,0,0,0,0,0,0,0,0,0-.07.05-.1.13-.13.22,0,0,0,0,0,0,0,0,0,0,0,0-.11.17-.22.35-.33.52l-.13.2c-.64.91-1.39,1.7-2.23,2.39-.12.09-.24.18-.36.27-.05.04-.1.07-.15.11l-.69.43c-.43.2-.86.41-1.3.61Zm-1.01-40.52c0-.13-.02-.26-.02-.39,0-.03,0-.06,0-.09-.04-.77-.29-1.63-.86-2.1-.17-.14-.37-.25-.59-.33-.46-.24-.92-.24-1.4-.09-.63.1-1.06.5-1.35,1.1-.44.91-.43,1.89-.42,2.87v.09s0,.09,0,.14c0,.02,0,.05,0,.07v1.4c0,.24,0,.48,0,.72,0,.24,0,.48,0,.72,0,.23,0,.47,0,.7,0,.23,0,.47,0,.7s0,.48,0,.72c0,.24,0,.48,0,.72v1.4s0,1.43,0,1.43c0,.23,0,.47,0,.7s0,.47,0,.7v2.83c0,.24,0,.48,0,.72,0,.24,0,.48,0,.72,0,.23,0,.47,0,.7,0,.16,0,.31,0,.47,0,.08,0,.16,0,.23,0,.24,0,.48,0,.72,0,.24,0,.48,0,.72v1.4s0,1.34,0,1.34c0,.25,0,.5,0,.75,0,.25,0,.5,0,.75-.03.45-.04.89,0,1.34.08.52-.21.69-.6.86-.57.25-1.09.61-1.52,1.11-.01.01-.02.02-.04.03,0,0-.01.01-.02.02-.54.49-.9,1.18-1.17,1.88-.25.64-.37,1.32-.4,2.04v.28c-.01.13-.01.25,0,.38,0,.19,0,.38,0,.57v.04c.06.45.12.89.29,1.31.12.41.26.81.47,1.17.02.04.05.09.07.13.13.23.26.47.42.69.17.24.37.47.57.69.04.04.08.08.12.12.04.04.08.08.12.12.2.19.39.39.62.53,0,0,.02.01.03.02.05.03.1.06.15.09.09.05.18.11.26.16.32.22.67.38,1.03.5.02,0,.04.02.06.04.02.02.05.04.07.04,0,0,.01,0,.02,0,0,0,.02,0,.03,0,.01,0,.03,0,.04,0,.1.03.2.06.29.09.03,0,.06,0,.08.01.03,0,.05,0,.08.01h.03c.44.11.89.17,1.35.18.11,0,.22,0,.33,0,.27-.02.54-.07.81-.11.07-.01.14-.03.21-.05.08-.03.17-.05.26-.07.14-.03.28-.09.42-.15.07-.03.14-.06.22-.09.19-.07.38-.16.56-.27.02-.01.03-.02.05-.03l.06-.03c.25-.15.51-.31.74-.5.1-.09.19-.18.28-.29.07-.08.16-.15.24-.22.04-.03.08-.07.12-.1.23-.21.45-.46.61-.73.03-.05.06-.09.08-.14.02-.03.04-.07.06-.1.05-.1.11-.19.17-.28.26-.4.45-.85.59-1.33,0,0,.01-.02.02-.02,0,0,.02-.02.02-.03v-.02s0-.08.02-.11c.16-.44.27-.89.24-1.38,0,0,0,0,0,0,0,0,0,0,0-.01,0,0,0,0,0,0,.07-.03.06-.1.05-.16,0-.03,0-.05,0-.08,0-.05,0-.1,0-.15,0-.05,0-.1,0-.15v-.37c0-.06,0-.12,0-.18h0c0-.07,0-.14,0-.2-.11-.93-.31-1.81-.76-2.6-.04-.07-.08-.14-.12-.22-.11-.2-.21-.4-.35-.57l-.03-.04c-.17-.21-.34-.42-.54-.61-.02-.02-.04-.04-.06-.06-.23-.2-.46-.41-.72-.56-.02-.01-.05-.03-.07-.04-.02-.01-.04-.03-.07-.04-.17-.1-.34-.21-.53-.28-.09-.04-.19-.06-.29-.09-.25-.07-.4-.2-.41-.46,0-.04,0-.09.01-.13,0-.03,0-.05.01-.08,0-.06,0-.12-.01-.19,0-.05-.02-.1-.01-.16,0-.08,0-.15,0-.23,0-.05,0-.1,0-.15.01-.47.03-.94.02-1.42,0-.23,0-.47,0-.7,0-.22,0-.43,0-.65,0-.14,0-.29-.01-.43,0-.22-.02-.43-.01-.65.02-1.27.02-2.54-.01-3.81,0-.03,0-.06.01-.1,0-.01,0-.03,0-.04,0-.02,0-.03,0-.05,0-.03,0-.06-.01-.09,0-.03-.01-.06-.01-.09,0-.48,0-.96.01-1.43,0-1.1.02-2.21.02-3.31,0-.82,0-1.64-.02-2.46,0-.17,0-.35,0-.52,0-.2,0-.4.02-.6h0c0-.13.01-.26.01-.39,0-.26,0-.52,0-.78,0-.22,0-.44,0-.66,0-.11,0-.21,0-.32,0-.23,0-.46,0-.69,0-.15,0-.3,0-.46,0-.13,0-.27,0-.4,0-.24,0-.47,0-.71,0-.21,0-.42,0-.63,0-.22,0-.44,0-.66,0-.13,0-.25,0-.38,0-.21-.01-.42-.02-.64Z"/>
</svg>