<?xml version="1.0" encoding="UTF-8"?>
<svg id="Layer_1" data-name="Layer 1" xmlns="http://www.w3.org/2000/svg" viewBox="0 0 91.47 92">
  <defs>
    <style>
      .cls-1 {
        fill: none;
        stroke: #5ac4d2;
        stroke-width: 4px;
      }

      .cls-2 {
        fill: #5ac4d2;
      }
    </style>
  </defs>
  <path class="cls-1" d="m89.47,46c0,24.31-19.59,44-43.74,44S2,70.31,2,46,21.59,2,45.74,2s43.74,19.69,43.74,44Z"/>
  <path class="cls-2" d="m50.78,64.96c1.63-.7,3.03-1.62,4.26-2.78,2.62-2.55,3.96-5.62,3.96-9.33s-1.34-6.78-4.02-9.33c-2.51-2.38-5.65-3.71-9.44-3.94l-1.75,1.04,12.42-14.61h-21.34v4.06h13.06l-12.01,13.91,3.09,2.49c1.87-1.86,4.08-2.78,6.65-2.78s4.72.87,6.53,2.67c1.81,1.8,2.74,3.94,2.74,6.49s-.93,4.58-2.8,6.38c-.82.81-1.81,1.45-2.91,1.91-1.17.46-2.51.75-4.08.75s-3.21-.58-4.78-1.62c-1.63-1.04-2.74-2.49-3.38-4.29l-3.96,1.33c.87,2.55,2.51,4.64,4.9,6.26,1.11.75,2.33,1.33,3.67,1.8,1.28.41,2.74.64,4.37.64s3.21-.35,4.84-1.04Z"/>
</svg>