<?xml version="1.0" encoding="UTF-8"?>
<svg id="Layer_1" data-name="Layer 1" xmlns="http://www.w3.org/2000/svg" viewBox="0 0 130 85">
  <defs>
    <style>
      .cls-1 {
        fill: none;
        stroke: #5ac4d2;
        stroke-width: 3px;
      }

      .cls-2 {
        fill: #5ac4d2;
      }
    </style>
  </defs>
  <rect class="cls-1" x="1.5" y="1.5" width="127" height="82" rx="7.5" ry="7.5"/>
  <path class="cls-2" d="m49.99,65.69h-3.01c-.88,0-1.59.72-1.59,1.6v9.11c0,.88.71,1.6,1.59,1.6h3.01c.88,0,1.59-.72,1.59-1.6v-9.11c0-.88-.71-1.6-1.59-1.6Z"/>
  <path class="cls-2" d="m84.31,65.69h-3.01c-.88,0-1.59.72-1.59,1.6v9.11c0,.88.71,1.6,1.59,1.6h3.01c.88,0,1.59-.72,1.59-1.6v-9.11c0-.88-.71-1.6-1.59-1.6Z"/>
  <path class="cls-2" d="m89.86,33.14h-.57v-5.37c0-1.42-.28-2.82-.82-4.12-.54-1.31-1.33-2.5-2.32-3.5s-2.18-1.79-3.48-2.34c-1.3-.54-2.69-.82-4.1-.82h-27.72c-2.85,0-5.57,1.13-7.59,3.16-2.01,2.02-3.15,4.76-3.15,7.62v4.56c-.82,0-1.6.32-2.19.9-.58.58-.92,1.36-.93,2.19v8.5h2.75v26.94h50.97v-27.73h2.29v-6.86c0-.83-.34-1.63-.93-2.22-.59-.59-1.38-.92-2.21-.92Zm-36.28-10.64h22.81c.54,0,1.05.21,1.43.6.38.38.59.9.59,1.44s-.21,1.06-.59,1.44c-.38.38-.9.6-1.43.6h-22.81c-.54,0-1.05-.21-1.43-.6-.38-.38-.59-.9-.59-1.44s.21-1.06.59-1.44c.38-.38.9-.6,1.43-.6Zm-2.03,43.19c-.66,0-1.31-.2-1.85-.57-.55-.37-.98-.89-1.23-1.51-.25-.61-.32-1.29-.19-1.94.13-.65.45-1.25.92-1.72.47-.47,1.06-.79,1.71-.91.65-.13,1.32-.06,1.93.2s1.13.69,1.49,1.24c.36.55.56,1.2.55,1.87,0,.44-.09.87-.25,1.28-.17.41-.41.77-.72,1.08-.31.31-.68.55-1.08.72s-.84.25-1.27.25Zm27.93,0c-.66.01-1.31-.17-1.87-.53-.56-.36-.99-.88-1.26-1.49-.26-.61-.34-1.29-.21-1.94.12-.65.44-1.26.9-1.73.47-.47,1.06-.8,1.71-.93.65-.13,1.32-.07,1.94.19.61.26,1.14.69,1.5,1.24.37.56.56,1.21.56,1.87,0,.88-.34,1.72-.95,2.34-.61.62-1.44.98-2.31.99Zm4.68-16.62h-38.79v-20.13h38.79v20.13Z"/>
</svg>