<?xml version="1.0" encoding="UTF-8"?>
<svg id="Layer_1" data-name="Layer 1" xmlns="http://www.w3.org/2000/svg" viewBox="0 0 130 85">
  <defs>
    <style>
      .cls-1 {
        fill: none;
        stroke: #5ac4d2;
        stroke-width: 3px;
      }

      .cls-2 {
        fill: #5ac4d2;
      }
    </style>
  </defs>
  <path class="cls-2" d="m108.83,37.45c-.15-.2-.3-.39-.44-.57-1.75-2.3-3.16-4.9-4.41-7.19-1.22-2.24-2.38-4.36-3.64-5.83-2.81-3.27-5.46-4.86-8.09-4.86h-13s-1.25.02-2.75.02h-2.12c-1.52,0-2.84,1.03-3.21,2.5l-.02.07v28.77s.04.43-.29.78c-.36.39-1.04.6-1.99.6H18.23c-1.78,0-3.23,1.36-3.23,3.04v10.45c0,1.68,1.45,3.04,3.23,3.04h11.12c.58,6.66,6.19,11.9,12.99,11.9s12.41-5.24,12.99-11.9h18.61c.58,6.66,6.19,11.9,12.99,11.9s12.41-5.24,12.99-11.9h8.46c3.21,0,5.82-2.61,5.82-5.82v-9.98c0-8.03,1.16-3.73-5.39-15.02Zm-17.02,29.67c0,2.68-2.18,4.86-4.86,4.86s-4.86-2.18-4.86-4.86,2.18-4.86,4.86-4.86,4.86,2.18,4.86,4.86Zm11.19-25.32c-.1.17-.39.24-.83.21h-22.35v-18.23h9.66c2.6,0,4.44,1.13,6.36,3.91,1.27,1.85,4.65,7.66,4.82,7.95.12.23.24.47.37.7.97,1.86,2.45,4.67,1.97,5.46Zm-60.65,20.46c2.68,0,4.86,2.18,4.86,4.86s-2.18,4.86-4.86,4.86-4.86-2.18-4.86-4.86,2.18-4.86,4.86-4.86Z"/>
  <rect class="cls-1" x="1.5" y="1.5" width="127" height="82" rx="7.5" ry="7.5"/>
</svg>