<?xml version="1.0" encoding="UTF-8"?>
<svg id="Layer_1" data-name="Layer 1" xmlns="http://www.w3.org/2000/svg" xmlns:xlink="http://www.w3.org/1999/xlink" viewBox="0 0 130 85">
  <defs>
    <style>
      .cls-1 {
        fill-rule: evenodd;
      }

      .cls-1, .cls-2 {
        fill: #5ac4d2;
      }

      .cls-3 {
        stroke: #5ac4d2;
        stroke-width: 3px;
      }

      .cls-3, .cls-4 {
        fill: none;
      }

      .cls-5 {
        clip-path: url(#clippath);
      }
    </style>
    <clipPath id="clippath">
      <rect class="cls-4" x="17" y="11" width="92.35" height="68.74"/>
    </clipPath>
  </defs>
  <g class="cls-5">
    <g>
      <path class="cls-1" d="m99.47,38.09c-7.47-2.79-17.24-4.45-25.11-5.16l-2.72-.27h-.92l-1.36-.06h-.24l-4.26-18.32c-.08-.35-.26-.66-.52-.91-.26-.25-.58-.41-.93-.47-.88-.15-21.65-3.76-37.28-.62-.47.1-.89.38-1.15.78-.27.4-.37.89-.28,1.36.05.23.14.46.27.66s.3.37.5.5c.2.13.42.23.66.27.23.05.48.05.71,0l.37-.07h.3l-2.87,16.64v.11h-.64c-3.44,0-4.13,2.22-4.13,2.22l-2.1,5.25v13.7h-.77v2.74h.77v.05h1c.12-.21.25-.42.38-.63,2.09-3.33,5.2-5.9,8.87-7.32,3.67-1.42,7.7-1.6,11.49-.53,3.79,1.07,7.12,3.34,9.51,6.47,2.39,3.13,3.69,6.95,3.72,10.88h25.42v-.73c0-2.47.53-4.91,1.53-7.16,1.01-2.25,2.47-4.27,4.31-5.93-4.3-3.32-9.29-5.63-14.6-6.77v-1.85c5.87,1.17,11.38,3.71,16.07,7.43,2.31-1.7,5.01-2.8,7.85-3.21,2.84-.41,5.73-.12,8.43.86-.2-4.52-.75-9.33-2.28-9.91Zm-56.21-6c-1.3-.45-2.64-.75-4-.9h-11.67l2.68-15.64h13v16.54Zm21.74,14h-6.56c-2.18-5.45-6.29-9.9-11.55-12.5V15.59h14.11l4,17.31v13.19Zm23-3.19c-.11.04-.22.06-.34.06-.18,0-.36-.06-.51-.16-.15-.1-.26-.25-.33-.42l-1.48-3.76c-.09-.23-.08-.48.02-.7.1-.22.28-.39.5-.48.23-.09.48-.08.7.02s.39.28.48.5l1.47,3.76c.09.22.1.46.02.68-.08.22-.25.4-.46.5h-.07Zm4.29,0c-.09.05-.19.08-.29.1-.18,0-.36-.06-.51-.16s-.26-.25-.33-.42l-1.46-3.8c-.09-.22-.08-.47.01-.69s.27-.4.5-.49c.23-.08.49-.07.71.03.22.11.4.29.48.53l1.47,3.76c.07.22.06.46-.03.67-.09.21-.27.38-.48.47h-.07Z"/>
      <path class="cls-2" d="m95.73,51.77c-2.69,0-5.33.8-7.57,2.3-2.24,1.5-3.99,3.62-5.02,6.11-1.03,2.49-1.3,5.23-.78,7.87.53,2.64,1.82,5.07,3.73,6.97s4.33,3.2,6.97,3.73c2.64.53,5.38.26,7.87-.78,2.49-1.03,4.61-2.78,6.11-5.02s2.29-4.87,2.29-7.57c0-3.61-1.44-7.07-3.99-9.62-2.55-2.55-6.01-3.99-9.62-4Zm0,20c-1.27,0-2.51-.38-3.56-1.08-1.05-.7-1.88-1.71-2.36-2.88-.49-1.17-.61-2.46-.36-3.7.25-1.24.86-2.39,1.75-3.28s2.04-1.51,3.28-1.75,2.53-.12,3.7.36c1.17.49,2.17,1.31,2.88,2.36.7,1.05,1.08,2.29,1.08,3.56,0,.84-.16,1.68-.48,2.46-.32.78-.79,1.49-1.39,2.09-.6.6-1.3,1.07-2.08,1.4-.78.32-1.62.49-2.46.49v-.03Z"/>
      <path class="cls-2" d="m35,59.85c-1.09,0-2.16.32-3.07.93-.91.61-1.62,1.47-2.04,2.48-.42,1.01-.53,2.12-.31,3.2.21,1.07.74,2.06,1.51,2.83.77.77,1.76,1.3,2.83,1.51,1.07.21,2.18.1,3.2-.31,1.01-.42,1.87-1.13,2.48-2.04.61-.91.93-1.98.93-3.07,0-1.47-.59-2.87-1.62-3.91-1.04-1.04-2.44-1.62-3.91-1.62Z"/>
      <path class="cls-2" d="m34.67,51c-2.84,0-5.62.83-7.98,2.4-2.36,1.57-4.21,3.81-5.3,6.44-1.09,2.62-1.38,5.51-.83,8.3.55,2.79,1.91,5.35,3.92,7.36,2.01,2.01,4.56,3.38,7.35,3.94,2.78.56,5.67.28,8.3-.8s4.87-2.92,6.45-5.28c1.58-2.36,2.43-5.14,2.43-7.98,0-3.81-1.5-7.46-4.19-10.15-2.69-2.7-6.33-4.22-10.14-4.23Zm0,22.43c-1.6,0-3.16-.47-4.49-1.36-1.33-.89-2.36-2.15-2.98-3.63-.61-1.48-.77-3.1-.46-4.67.31-1.57,1.08-3.01,2.21-4.14,1.13-1.13,2.57-1.9,4.14-2.21,1.57-.31,3.19-.15,4.67.46,1.48.61,2.74,1.65,3.63,2.98.89,1.33,1.36,2.89,1.36,4.49,0,1.06-.2,2.12-.61,3.1-.4.98-1,1.88-1.75,2.63-.75.75-1.64,1.35-2.62,1.76-.98.41-2.03.62-3.1.62v-.03Z"/>
    </g>
  </g>
  <rect class="cls-3" x="1.5" y="1.5" width="127" height="82" rx="7.5" ry="7.5"/>
</svg>